<?xml version="1.0" encoding="UTF-8" standalone="no"?>
<svg
   id="svg91"
   version="1.1"
   viewBox="0 0 291.39539 278.30099"
   height="278.30099mm"
   width="291.39539mm"
   xmlns="http://www.w3.org/2000/svg"
   xmlns:svg="http://www.w3.org/2000/svg"
   xmlns:rdf="http://www.w3.org/1999/02/22-rdf-syntax-ns#"
   xmlns:cc="http://creativecommons.org/ns#"
   xmlns:dc="http://purl.org/dc/elements/1.1/">
  <defs
     id="defs85">
    <rect
       x="55.321152"
       y="443.38977"
       width="743.39185"
       height="59.698231"
       id="rect5337" />
    <rect
       x="55.321152"
       y="443.38977"
       width="743.39185"
       height="59.698231"
       id="rect5337-3" />
  </defs>
  <metadata
     id="metadata88">
    <rdf:RDF>
      <cc:Work
         rdf:about="">
        <dc:format>image/svg+xml</dc:format>
        <dc:type
           rdf:resource="http://purl.org/dc/dcmitype/StillImage" />
      </cc:Work>
    </rdf:RDF>
  </metadata>
  <path
     id="path324-35-2-8-9-2-2-2-3-7-7"
     style="fill:#ffffff;fill-opacity:1;stroke:#1b344f;stroke-width:0.7;stroke-linecap:butt;stroke-linejoin:miter;stroke-miterlimit:4;stroke-dasharray:none;stroke-dashoffset:0;stroke-opacity:1"
     d="m 79.019104,82.539991 -1.128174,-2.09372 h -2.283188 l 1.154384,-2.096578 -1.154384,-2.08802 h 2.283188 l 1.128174,-2.104421 1.143861,2.104421 h 2.271413 l -1.132099,2.08802 1.132099,2.096578 h -2.271413 z" />
  <path
     id="path324-35-2-8-9-2-2-2-3-7-7-2"
     style="fill:#ffffff;fill-opacity:1;stroke:#1b344f;stroke-width:0.7;stroke-linecap:butt;stroke-linejoin:miter;stroke-miterlimit:4;stroke-dasharray:none;stroke-dashoffset:0;stroke-opacity:1"
     d="m 93.469634,103.09975 -1.12817,-2.09372 h -2.28319 l 1.15439,-2.096566 -1.15439,-2.08802 h 2.28319 l 1.12817,-2.104422 1.14387,2.104422 h 2.27141 l -1.1321,2.08802 1.1321,2.096566 h -2.27141 z" />
  <path
     id="path324"
     d="m 175.77536,146.59373 v 3.2041 h -2.87223 v 3.11683 h 2.87223 v 3.33504 c -3.54208,0.78149 -6.06917,3.89732 -6.0997,7.51503 v 0.25371 h -3.04468 v 3.98866 h 3.45576 v 21.32859 h -7.45962 v -20.2274 h 0.30431 0.75609 v -4.19671 h -2.48148 v 2.15672 h -2.01458 v -2.15672 h -2.46625 v 2.15672 h -1.9994 v -2.15672 h -2.47641 v 2.15672 h -2.00952 v -2.15672 h -2.47641 v 4.19671 h 1.08088 v 20.2274 h -1.90297 v 2.88746 h 61.34156 v -2.89253 h -1.88774 v -20.22233 h 0.30468 0.75104 v -4.19669 h -2.44598 v 2.15163 h -2.0146 v -2.15163 h -2.47131 v 2.15163 h -2.00445 v -2.15163 h -2.47643 v 2.15163 h -1.99939 v -2.15163 h -2.48652 v 4.1967 h 1.10118 v 20.22232 h -7.42918 v -21.32859 h 3.37965 v -3.98866 h -3.04474 c -0.20279,-3.72427 -2.36988,-6.98219 -6.0895,-7.78398 v -3.32996 h 2.87221 v -3.11226 h -2.87221 v -3.20411 z m -20.04463,6.05198 -1.55788,2.60936 h -3.08028 l 1.54269,2.61343 -1.54269,2.60329 h 3.08028 l 1.55788,2.62308 1.52748,-2.62308 h 3.10564 l -1.54775,-2.60329 1.54775,-2.61343 h -3.10564 z m 43.76829,0 -1.53252,2.60936 h -3.10053 l 1.56802,2.61343 -1.56802,2.60329 h 3.10053 l 1.53252,2.62308 1.55285,-2.62308 h 3.08534 l -1.53762,-2.60329 1.53762,-2.61343 h -3.08534 z m -52.5879,41.26731 v 4.20178 h 1.47671 c -1.06058,11.70212 -5.28262,30.76236 -9.37783,41.7996 0.25382,0.0508 0.5227,0.10157 0.74086,0.10157 7.52564,-3.50654 17.14197,-5.85606 27.5956,-6.75427 v -17.14208 c 0,-5.99311 4.82596,-10.81909 10.81391,-10.81909 5.9982,0 10.81905,4.82598 10.81905,10.81909 v 17.42115 c 11.60556,1.28895 21.92729,4.38444 29.2651,8.7689 -4.491,-12.26531 -10.14405,-32.18316 -11.33662,-44.22021 h 1.20779 v -4.1967 h -5.15075 v 2.15162 h -4.18647 v -2.15163 h -5.16089 v 2.15163 h -4.18651 v -2.15163 h -5.14058 v 2.15163 h -4.1155 v -2.15163 h -5.16591 v 2.15163 h -4.09009 v -2.15163 h -5.16595 v 2.15163 h -4.18144 v -2.15163 h -5.1456 v 2.15163 h -4.29821 v -2.15163 z"
     style="vector-effect:none;fill:#f57900;fill-opacity:1;stroke:none;stroke-width:2.59162;stroke-linecap:butt;stroke-linejoin:miter;stroke-miterlimit:4;stroke-dasharray:none;stroke-dashoffset:0;stroke-opacity:1" />
  <path
     style="vector-effect:none;fill:#a80030;fill-opacity:1;stroke:none;stroke-width:1.63733;stroke-linecap:butt;stroke-linejoin:miter;stroke-miterlimit:4;stroke-dasharray:none;stroke-dashoffset:0;stroke-opacity:1"
     d="m 96.041051,128.52337 c -5.010171,-0.0409 -9.875198,0.66146 -13.984603,1.90806 1.544752,-0.067 3.487783,-0.16005 3.268167,0.3499 -5.229809,1.33073 -4.809187,0.59966 -6.100823,0.24568 -3.755786,1.58161 -2.758212,2.9354 -4.615631,4.61304 -7.705131,2.3633 -8.393751,3.61771 -14.6993,6.57993 l 1.198575,0.77536 c -4.448133,2.22482 -3.469172,4.30596 -7.492959,7.49077 -0.387122,0.0484 0.536008,-1.77554 1.503804,-3.07091 -2.799158,3.65158 -3.711121,2.43811 -6.111993,6.34803 0.223331,-1.32217 0.692344,-2.50922 1.057129,-3.80086 -2.467874,2.78876 -4.749635,7.80978 -4.86875,5.43495 -2.374814,6.20472 -7.30684,16.51294 -7.574843,24.7947 l -1.031078,-0.76307 c 0.390842,4.31043 -1.522415,15.56667 1.001298,19.14009 l -0.402007,0.64398 c 0.710954,2.74335 2.006311,5.36014 2.970379,7.94344 0.941739,3.60693 -1.079459,2.83269 -0.532286,2.99647 2.694936,7.93967 5.855154,13.71298 8.397472,18.50358 1.99887,0.39457 7.239848,7.1915 12.354265,11.70666 5.81421,6.49915 12.879105,11.65454 20.591676,15.48107 8.505427,4.61192 12.257476,4.4072 21.514737,5.42711 0.5509,0.0744 1.09063,0.11173 1.62663,0.14904 3.15649,0.29779 5.99285,0.46902 8.33788,0.83008 -0.57323,-0.22335 -1.7383,-0.26057 -2.59814,-0.33501 -0.89707,-0.11173 -1.55591,-0.26055 -1.2358,-0.65514 1.95047,-0.0744 3.5771,-0.26055 5.52757,-0.33501 1.16506,-0.0745 1.94674,-0.0745 2.8103,-0.0371 1.61548,0.0371 8.02153,-0.33502 10.39636,-2.24084 0.61418,-0.11172 0.69605,0.0371 0.5025,0.29778 -0.18611,0.26057 -0.6365,0.60674 -1.07573,0.92316 -0.40202,0.29776 -0.81148,0.56204 -0.83381,0.66999 -0.0372,0.11174 0.33501,0.0745 1.43682,-0.33502 0.70724,-0.51737 1.17996,-1.07573 1.58569,-1.60057 0.42062,-0.54346 0.76679,-1.04969 1.2693,-1.56709 0.51739,-0.53974 1.11667,-1.01619 2.0063,-1.54103 0.90451,-0.53601 2.02494,-1.07948 3.64785,-1.83511 0.14904,0.14888 0.0372,0.37225 -0.14873,0.58814 -0.18619,0.22333 -0.47274,0.43178 -0.67003,0.59556 -0.18618,0.14891 -0.29778,0.26056 -0.14873,0.26056 0.14873,0 0.58438,-0.0744 1.45911,-0.41317 0.14889,-1.03109 1.04973,-2.22595 2.27061,-3.46175 0.33501,-0.33501 0.69235,-0.70723 1.07947,-1.06457 1.88349,-1.74949 4.18758,-3.43942 6.34652,-4.97674 1.27672,-0.93803 2.51253,-1.81276 3.65154,-2.57955 1.11297,-0.74819 2.05097,-1.33258 2.59816,-1.61176 0.0372,0.18611 0.0372,0.37222 0.0372,0.54346 0,0.18609 0.0371,0.37222 0.0371,0.54344 2.00261,-0.6551 3.54734,-1.50753 4.86133,-2.24454 1.30279,-0.72958 2.36737,-1.33632 3.33888,-1.45543 0.26055,-0.0372 0.50994,-0.0372 0.76679,-0.0744 0.83008,-0.0744 1.69363,-0.22333 2.57211,-0.37222 1.15016,-0.22334 2.34503,-0.48763 3.51011,-0.80403 1.5038,-0.26056 3.04109,-0.61045 4.51882,-0.70351 1.45916,-0.0745 2.79544,0.0372 3.78186,0.71469 0.335,-0.14889 0.69236,-0.29779 1.04598,-0.43552 0.33498,-0.14888 0.6998,-0.29778 1.05342,-0.45412 0.38336,0.11172 0.76305,0.1861 1.15016,0.29779 0.37968,0.11172 0.7705,0.22333 1.16505,0.37223 -0.0375,-0.11173 -0.0744,-0.22333 -0.11196,-0.33501 -0.0375,-0.11173 -0.0744,-0.22333 -0.11172,-0.33501 0.33503,0.0372 0.67747,0.0745 0.98271,0.11172 1.61918,0.1861 2.61674,0.40945 3.20487,0.65885 0.71841,0.29778 0.94918,0.66628 1.1874,1.19114 0.18619,0.37968 0.33502,0.89707 1.03108,1.37725 0.7035,0.49507 1.82021,0.88963 3.97539,1.22463 0.18619,0.0372 0.39829,0.0744 0.61048,0.11172 0.22347,0.0372 0.43548,0.0372 0.66625,0.0744 -0.18618,-0.26056 -0.33499,-0.48389 -0.61043,-0.72212 -0.26052,-0.22335 -0.61788,-0.48017 -1.1539,-0.72586 -0.0744,-0.0372 -0.11196,-0.0744 -0.18619,-0.11173 -0.0744,-0.0373 -0.14874,-0.0745 -0.22346,-0.11173 0.0375,-0.0372 0.0744,-0.0372 0.14873,-0.0372 0.0375,0 0.11196,-0.0371 0.18618,-0.0371 0.51368,-0.0744 1.48148,0.0371 2.61679,0.29781 1.01619,0.22333 2.1105,0.53973 3.15278,0.93429 0.11196,0.0371 0.26052,0.11172 0.39459,0.14892 0.11195,-0.14892 0.18616,-0.29779 0.29775,-0.45784 0.11196,-0.14892 0.18616,-0.29779 0.29777,-0.46528 1.02363,0.22333 1.675,0.54718 2.15145,0.84495 0.48765,0.29778 0.81893,0.60303 1.23956,0.8673 -0.7333,-0.75564 -0.66258,-1.02735 -0.0744,-1.00503 0.59557,0.0372 1.6527,0.33501 2.83269,0.72586 1.32513,0.45785 2.54977,0.94545 3.65902,1.39959 0.37594,0.14887 0.73699,0.29777 1.04967,0.42805 0.57695,0.22335 1.02735,0.40946 1.29906,0.48763 -0.14873,0.11173 -0.33499,0.26056 -0.47646,0.3834 -0.14874,0.11173 -0.33499,0.26056 -0.46898,0.38711 0.75931,-0.22333 1.68247,-0.14892 2.82148,0.14889 1.15018,0.29777 2.46414,0.78168 4.07589,1.4368 0,0.0744 0.14874,0.77053 0.14874,0.8338 0.0369,0.22333 0.11196,0.63279 0.14874,0.84125 0.40945,0.0744 0.9306,0.22333 1.49266,0.44295 0.55834,0.22333 1.15391,0.49505 1.71595,0.79657 1.1167,0.59929 2.11799,1.32143 2.40835,1.99516 0.18616,-0.26056 0.38336,-0.5174 0.56948,-0.78169 0.18619,-0.26056 0.37224,-0.52483 0.55089,-0.78913 1.18742,1.47404 1.87606,1.71599 2.52374,1.93188 0.0744,0.0372 0.18619,0.0744 0.26054,0.0744 0.92312,0.335 1.16135,0.49135 3.28678,1.71226 -0.37224,0.11173 -0.71471,0.18609 -1.07576,0.26057 -0.37225,0.0744 -0.73329,0.14887 -1.10923,0.18609 1.67502,0.33501 3.17138,0.14887 4.52627,-0.0371 0.88219,-0.11172 1.64525,-0.22333 2.62797,-0.29778 0.6365,-0.0372 1.30276,-0.0744 2.08074,-0.0744 2.50511,0.33499 3.93073,0.50995 5.36381,0.72211 1.31769,0.18612 3.03365,0.39831 5.68022,-0.0371 -2.20732,-0.37223 -4.40721,-0.93802 -6.51399,-1.54475 -2.01007,-0.57697 -4.00148,-1.20975 -5.49783,-1.48148 -0.55091,-0.14892 -1.08694,-0.33501 -1.60804,-0.5174 -2.43067,-0.84497 -4.64913,-1.98026 -6.68522,-3.24584 -0.29779,-0.18611 -0.58064,-0.33501 -0.87474,-0.5323 -1.9095,-1.19115 -3.81161,-2.52745 -5.71742,-3.71859 -1.5038,-0.96407 -3.11184,-1.95792 -4.83152,-2.9369 -1.36607,-0.78168 -2.79546,-1.55219 -4.30299,-2.29295 -3.08574,-1.51868 -6.30182,-2.78427 -9.62579,-3.79302 -0.98642,-0.29778 -1.98026,-0.57696 -2.97784,-0.83007 -3.98655,-0.98641 -7.83542,-1.54847 -11.43485,-1.91698 -1.82393,-0.22334 -3.52872,-0.33501 -5.08094,-0.42806 -1.77553,-0.0745 -3.4245,-0.0745 -4.91711,-0.0373 -2.78056,0.11173 -5.28566,0.37968 -7.63442,0.85613 h -0.84496 -0.80399 c -1.24325,0.1861 -2.69868,0.33501 -3.86747,0.33501 -1.18372,0.0372 -2.15147,-0.11173 -2.51627,-0.52856 -0.22332,0.11172 -0.48761,0.18609 -0.75192,0.29778 -1.16506,0.43179 -2.60555,0.90824 -4.31037,1.48148 -2.09565,0.70722 -4.53749,1.55964 -7.28824,2.63167 -0.11173,-0.11173 -0.0373,-0.0372 0.0371,0.14887 0.0372,0.1861 -0.0371,0.50252 -0.41316,0.88963 -0.11195,0.11172 -0.2978,0.22333 -0.50253,0.37223 -0.22332,0.11172 -0.469,0.26056 -0.78168,0.39083 -1.00128,0.2978 -2.05841,0.54719 -3.13045,0.80775 -1.07199,0.26055 -2.16264,0.536 -3.23466,0.91569 -0.0372,0.11172 -0.11172,0.18611 -0.14874,0.29779 -0.037,0.11172 -0.0744,0.1861 -0.14905,0.29778 -0.8375,-0.0371 -1.92815,0.335 -3.14907,0.92312 -0.68117,0.33503 -1.39586,0.72214 -2.13286,1.15393 -0.47272,0.22333 -0.94173,0.47272 -1.41448,0.71839 -1.10923,0.57696 -2.11052,1.1167 -3.04855,1.54848 -0.9194,0.43552 -1.70107,0.71096 -2.31155,0.78542 0.11161,0.11173 0.22333,0.22333 0.33501,0.37223 0.11172,0.11172 0.22333,0.22333 0.33502,0.37223 -2.1701,0.74075 -4.27319,2.04726 -6.44701,2.58701 -0.14887,0.0371 -0.335,0.0744 -0.49133,0.11173 -1.95793,0.69234 -4.22108,0.6514 -5.95938,0.14892 0.43923,0.55834 -0.0372,0.75562 -1.12784,0.75562 -0.26056,0 -0.54718,-0.0372 -0.85985,-0.0372 -0.95662,-0.11172 -2.08818,-0.33501 -3.11553,-0.4355 0.38712,0.335 0.79657,0.58439 1.19485,0.84495 0.335,0.22334 0.67,0.42806 1.00501,0.67002 0.0744,0.0371 0.1117,0.11172 0.1861,0.14888 -0.0744,-0.0372 -0.1861,-0.0372 -0.26056,-0.0372 -1.55218,-0.22333 -2.12169,-0.18609 -3.02247,-0.0371 -0.78541,0.11173 -1.79041,0.29778 -3.52499,-0.29779 -0.11168,-0.0744 -0.22333,-0.0744 -0.33501,-0.18609 -0.1117,-0.0744 -0.22333,-0.11172 -0.335,-0.18611 -0.0744,-0.18609 0.22333,-0.26056 0.65512,-0.29779 0.49133,-0.0371 1.03851,-0.0371 1.52985,-0.0744 -1.77552,-0.18608 -2.49392,-0.33498 -2.8103,-0.22332 -0.26056,0.0744 0.0744,0.29778 0.62533,0.59929 0.0372,0.0371 0.0372,0.0371 0.0372,0.0744 0,0.0371 0,0.0371 0.0372,0.0744 0,0 0.1861,0.0371 0.335,0.11172 0.18611,0.0371 0.33501,0.11173 0.33501,0.11173 0.603,0.22333 1.32885,0.55463 1.8053,0.81518 0.49505,0.26056 0.80773,0.49879 0.68117,0.61045 -2.03236,0.1861 -3.30538,-0.50624 -4.38855,-1.03478 -1.15019,-0.55836 -2.19986,-1.00875 -4.332717,-0.81519 0.0744,-0.26057 0.186097,-0.4839 0.260557,-0.72213 0.0744,-0.22333 0.1861,-0.47645 0.29778,-0.71096 -2.423188,0.26056 -4.429496,0.14889 -6.175237,0.11173 -0.186097,0 -0.335007,0 -0.509947,0 -8.434685,-2.73218 -2.412026,4.15407 -13.221542,-1.45171 l 0.524844,-0.65512 c -1.175957,-0.22362 -2.221916,-0.7187 -3.349769,-1.09466 l -2.419638,-2.81794 c -5.899765,-0.45042 -14.237683,-12.74147 -19.497273,-18.79395 -2.028642,-2.57211 -2.460429,-7.03888 -4.768249,-12.41016 l -1.094349,0.77424 c -1.325133,-4.89857 -2.311538,-22.69498 2.065869,-26.10832 -0.483897,-4.25459 -0.390839,0.37223 -1.347467,0.14887 -0.148874,-8.43102 2.41576,-8.4757 4.440685,-12.04129 1.224633,-4.80401 -1.890922,3.28271 -1.84253,0.47645 3.882342,-6.54493 0.666287,-6.72136 6.79317,-14.19616 1.124127,-0.31267 -1.034797,2.29371 -1.101797,3.42046 2.21476,-6.46756 12.101147,-15.38284 21.027184,-18.67188 10.392616,-3.76883 28.140376,-1.94378 37.665646,6.94917 l 0.45412,-0.26056 c 3.48035,3.8403 8.45332,7.33333 11.0552,12.50773 l -0.97153,-2.71171 c 2.89969,2.69312 3.3389,4.97265 4.90969,8.20957 l -0.75191,2.24083 c 1.15766,3.5991 1.6341,1.38842 2.65027,4.15373 -0.2233,3.61063 -0.48387,11.10737 -1.39956,12.68189 -0.93056,0.88963 -0.45413,-1.6862 -0.66629,-2.29667 -0.80401,4.31417 0.58068,4.69012 -2.26315,9.67055 l -0.37223,-0.14888 c -5.10697,14.18206 -27.49644,18.58927 -39.58635,6.14183 0.67373,0.88219 0.29778,0.87848 0.38711,1.40332 -6.808054,-5.81427 -9.733768,-15.563 -6.569829,-23.91213 2.843829,-8.41576 10.586159,-13.87564 18.376849,-14.14401 -5.114385,-0.6879 -12.59986,0.64544 -17.539335,6.1526 -5.032532,5.19968 -6.569834,13.24358 -4.634245,18.37292 -0.975236,4.27322 3.435669,9.29089 3.156498,11.29723 9.759821,12.83828 19.069192,13.28867 32.309292,11.53919 1.00128,-0.1861 1.30651,-0.0372 1.46285,0.22333 0,0 0,-0.0372 0,-0.0372 12.1421,-5.54253 20.47257,-15.47368 21.98754,-29.25367 0.4318,-3.46547 -0.037,-8.16674 0.55836,-8.81778 0.46526,2.31863 0.82633,0.51331 1.34375,2.44891 -1.18743,-5.06196 -2.118,-0.42806 -3.39472,-7.39957 l 2.49766,0.39457 c -2.99275,-2.20325 -2.52373,-8.97303 -6.99792,-12.71024 -0.42436,-2.08524 2.27432,0.42732 4.28435,4.19543 -1.98026,-4.42584 -3.39473,-4.04281 -5.7286,-6.99908 1.22834,0.55127 2.61676,1.04784 3.78555,1.75768 -3.8935,-2.29964 -4.39973,-6.02641 -5.7993,-8.22778 -0.56952,0.21962 0.14889,2.59668 -3.70741,-0.8673 -1.55963,-1.61883 -0.39083,-1.27527 -0.62535,-1.82579 -0.48761,0.13028 -2.5237,-0.268 -5.35636,-2.10645 -0.1861,-0.90825 2.38599,0.4597 2.9555,0.0484 -2.17009,-1.5403 -4.13173,-2.41318 -5.57972,-3.815 -4.43322,-1.563 -0.11169,0.90899 -2.95547,0.38079 -6.29435,-3.23431 0.14888,-2.37222 -1.81274,-4.72435 5.66529,1.03853 12.18301,4.91828 14.94122,6.46267 -3.08577,-2.16117 -6.37627,-3.95793 -9.75237,-5.50529 1.005,-0.40537 -6.53259,-4.26502 -0.71097,-2.54234 -6.07097,-3.47571 -13.71278,-5.01041 -21.038199,-5.04131 z M 117.15,212.68408 c 0,0.0373 0.0372,0.11173 0.0744,0.14889 -0.0372,-0.0372 -0.0372,-0.0745 -0.0744,-0.14889 z m 0.0744,0.14889 c 0.11167,0.22334 0.1861,0.50251 0.48017,0.68491 -3.65154,1.32514 -7.69392,1.84253 -11.72513,1.56337 2.45297,0.46156 4.94317,0.80401 7.4408,0.52484 -3.14159,1.55592 -11.17423,-0.18611 -12.2872,0.51367 11.29336,3.19746 29.1231,-3.70741 32.89377,-12.90154 -2.88848,3.11186 -6.74479,6.86769 -11.3567,8.99312 -1.9542,0.62907 -4.96926,1.02736 -5.44571,0.62163 z M 56.406192,142.16265 c -1.481472,1.75432 -3.011332,3.44574 -4.399743,5.23766 l 0.800291,-0.60488 c 0.740736,-1.59501 2.639099,-3.1085 3.599452,-4.63278 z m -0.37223,3.53619 c -0.186102,-0.0409 -0.964073,0.58514 -2.75077,2.27061 1.090629,-0.75973 2.289205,-1.70445 2.356207,-1.32924 0.335006,-0.54197 0.547176,-0.92872 0.394563,-0.94137 z m -0.394563,0.93914 v 0 l -0.513674,0.78577 0.550896,-0.66107 z m 81.320621,9.14645 0.38712,0.89372 c 2.84009,3.7737 5.10698,8.05697 6.60334,12.63765 -1.50008,-4.90972 -3.90841,-9.5135 -6.99046,-13.53137 z m -23.99757,13.61326 c -0.47272,-0.0372 -0.18609,0.95664 0.33502,1.82394 0.49133,-0.14888 2.77308,1.6192 1.83134,0.0372 -1.17995,-1.35119 -1.85367,-1.85372 -2.17752,-1.87605 z m 5.12558,7.58941 c 0.91567,1.38098 1.28419,2.98902 1.74203,4.62311 -1.19486,5.27079 -1.51125,-0.9008 -2.44183,-2.44183 0.9008,7.84662 2.14405,3.11556 3.2384,4.45187 -0.39084,-2.453 -1.19486,-4.76083 -2.5386,-6.63315 z m 2.5386,6.63315 c 0,0 0,0 0,0 v 0 c 0,0 0,0 0,0 z m -2.91084,7.10216 c -1.05713,1.74949 -2.48275,3.19002 -4.05355,4.50027 -1.70852,1.7532 1.21347,0.56579 3.81905,-1.34747 0.14892,-1.11298 0.22332,-2.16639 0.22332,-3.1528 z m -83.006795,18.36965 c -0.37223,0.0373 -0.487624,1.08693 -1.00874,0.72214 2.590709,2.21477 1.466581,5.15911 2.158923,1.23207 -0.591841,-1.54103 -0.919403,-1.96538 -1.150183,-1.95421 z m -1.00874,0.72214 c -0.03723,-0.0373 -0.07444,-0.0745 -0.14889,-0.11173 0.03723,0.0372 0.07444,0.0745 0.14889,0.11173 z m 62.411516,2.97039 c 1.782961,1.01991 3.770649,1.44053 5.724839,1.94305 l -2.10308,-1.03853 c -1.269291,-0.0745 -2.426915,-0.50995 -3.621759,-0.90452 z m 1.038504,3.69997 0.967794,1.45543 c 2.683751,0.40573 5.259551,1.17997 7.917251,0.93057 -3.08203,-0.99386 -4.69749,-1.05713 -8.885045,-2.386 z m -57.576254,3.05602 c 0.416895,3.41335 1.634081,3.01507 2.776824,4.47421 -1.12041,-2.20733 -2.0212,-3.30168 -2.776824,-4.47421 z m 115.178509,10.2959 c -0.3722,0 -0.86353,0.18609 -1.73085,0.84496 0.45785,-0.0745 0.90451,-0.11172 1.36237,-0.14892 0.51365,-0.0745 1.09433,-0.18611 1.77554,-0.4169 -0.58441,0.0372 -0.86732,-0.1861 -1.25445,-0.26056 -0.0371,0 -0.11149,-0.0373 -0.14873,-0.0373 z m -6.72615,1.62292 c -0.0372,0 -0.0744,0.0372 -0.18619,0.0745 -0.3871,0.18611 -1.33255,0.55835 -2.43807,0.22334 v 0 c 0.18618,0.0745 0.14888,0.29778 0.0372,0.48017 -0.11173,0.1861 -0.22329,0.40946 -0.18617,0.5323 0.0371,0.0745 0.14872,0.11173 0.40202,0.11173 0.26055,-0.0373 0.64393,-0.11173 1.23206,-0.29778 0.83752,-0.88964 1.16879,-1.14648 1.10926,-1.14275 z m -2.6205,0.29778 c 0,0 0,0 0,0 h -0.0371 c 0,0 0.0371,0 0.0371,0.0372 z m -0.0371,0 c -0.0372,-0.0372 -0.0372,-0.0372 -0.0372,-0.0372 -0.0374,-0.0372 -0.0374,-0.0372 -0.0744,-0.0372 0.0374,0.0372 0.0374,0.0372 0.0374,0.0372 z m 0.0371,0 c 0,0 0,0 0,0 z m -42.88438,14.27876 v 0 c 0.0372,0 0.0372,0.0371 0.0744,0.0371 -0.0372,0 -0.0372,-0.0371 -0.0744,-0.0371 z m 0.0744,0.0371 c 0.6179,0.40574 1.38842,0.67375 2.15147,0.93431 0.78541,0.26056 1.55218,0.50995 2.12542,0.91569 h 0.39828 0.39455 c -0.83005,-0.26057 -1.6899,-0.53601 -2.54601,-0.84123 -0.83751,-0.29779 -1.68246,-0.62906 -2.5237,-1.00875 z"
     id="path322" />
  <path
     id="path318"
     style="font-size:22.2974px;line-height:1.25;font-family:'Poppl-Laudatio Condensed';-inkscape-font-specification:'Poppl-Laudatio Condensed, ';letter-spacing:0px;word-spacing:0px;fill:#f57900;fill-opacity:1;stroke-width:0.647779"
     d="m 108.75458,41.267996 c -1.92841,0.678898 -3.11524,0.792237 -4.39095,0.882757 1.15704,0.362079 1.15659,1.85552 1.15659,6.720958 v 5.566769 c 0,1.674616 5.1e-4,2.624912 -0.35551,3.34907 1.21638,0.362079 2.72895,0.566285 4.53868,0.566285 1.15703,0 4.51004,-2.81e-4 6.31979,-2.829024 0.86037,-1.312538 1.15659,-3.077414 1.15659,-4.41258 0,-0.81468 -0.11847,-2.602503 -0.97883,-3.734 -0.83071,-1.063607 -2.16582,-1.606977 -3.58988,-1.606977 -2.8481,0 -3.67869,1.810519 -4.12371,2.738346 0,-1.154127 0.0299,-5.182281 0.26723,-7.241604 z m -56.012955,0.904975 c 0.801031,0.565749 0.800486,3.236517 0.800486,5.929481 v 3.688359 c 0,3.168193 1.5e-5,4.50348 -0.148326,5.318157 -0.089,0.543119 -0.207525,0.769511 -0.385531,1.086331 0.623024,-0.06789 1.275882,-0.135716 2.403259,-0.135716 0.890035,0 1.335253,0.06783 1.958277,0.135716 -0.356011,-0.63364 -0.474765,-0.927824 -0.504432,-2.149841 v -5.386016 h 6.556418 l 0.02942,1.764913 c 0,3.009781 -0.02931,3.983308 -0.1183,4.639575 -0.089,0.588379 -0.207881,0.791919 -0.415556,1.131369 0.860367,-0.09052 1.305789,-0.135716 2.373833,-0.135716 0.563688,0 1.453441,0.06783 2.017129,0.135716 -0.415349,-0.769418 -0.474766,-1.606787 -0.504432,-2.444094 l -0.05945,-8.056503 c 0.089,-3.598161 0.08947,-3.869809 0.237804,-4.526078 0.118671,-0.497858 0.236821,-0.678834 0.503831,-0.995653 -0.741696,0.06789 -1.216188,0.135717 -2.373234,0.135717 -0.474685,0 -0.860268,-0.0224 -1.186616,-0.04504 -0.356015,-0.02262 -0.682275,-0.06805 -1.03829,-0.09068 0.296678,0.429969 0.445098,0.656203 0.504433,1.85559 0.05934,1.154126 0.05909,2.715809 0.02942,4.684613 H 56.86535 c -0.02967,-2.670332 -0.02991,-2.964453 0.02942,-4.435399 0.05934,-1.289907 0.177842,-1.561685 0.533856,-2.104804 -0.771362,0.06789 -1.275385,0.135717 -2.610436,0.135717 -0.504353,0 -0.860269,-0.0224 -1.186617,-0.04504 -0.296678,-0.02262 -0.563615,-0.06805 -0.889963,-0.09068 z M 87.067037,45.5905 c -0.71202,0.20367 -1.8692,0.587872 -4.24264,0.655761 0.41536,0.181039 0.86064,0.362647 1.06832,1.358364 0.14834,0.701529 0.14808,1.176594 0.17775,3.779038 v 2.285558 2.738347 c -0.14834,1.289905 -0.26672,1.470501 -0.4744,1.80995 0.56369,-0.06789 1.18654,-0.135717 2.07658,-0.135717 0.77136,0 1.24639,0.06783 1.72107,0.135717 -0.29668,-0.565749 -0.29666,-2.013617 -0.29666,-4.389761 v -2.421874 c -0.0296,-1.538837 -0.0596,-3.665542 2.46212,-3.665542 1.898734,0 2.106601,0.972703 2.106601,4.254046 v 2.489732 c 0,1.357797 -0.148457,2.285273 -0.207787,2.896282 -0.0594,0.407339 -0.11866,0.542927 -0.29667,0.837117 0.712037,-0.06789 1.067774,-0.112895 2.017128,-0.112895 0.890047,0 1.246514,0.04501 1.928861,0.112895 -0.29666,-0.429968 -0.415557,-1.199193 -0.415557,-2.98696 v -2.9191 c 0,-1.289907 -1.3e-4,-2.625323 0.237207,-3.32685 0.14833,-0.52049 1.009114,-1.289906 2.225508,-1.289906 1.928398,0 2.105998,0.973401 2.105998,2.331198 v 3.122676 1.425621 1.923447 c -0.11867,1.176758 -0.23705,1.357795 -0.474397,1.719874 0.741704,-0.09052 1.156894,-0.135717 1.928251,-0.135717 0.94937,0 1.45368,0.06783 1.98769,0.135717 -0.41534,-0.769418 -0.41555,-2.489223 -0.41555,-6.155274 V 48.89453 c 0,-1.765135 -0.35597,-3.146095 -3.382091,-3.146095 -2.877785,0 -3.886489,1.606849 -4.331516,2.308378 -0.14834,-0.678899 -0.563647,-2.308378 -3.382102,-2.308378 -2.788744,0 -3.708364,1.607039 -4.123714,2.331197 z m 43.938383,0.04504 c -1.18671,0.362079 -1.988,0.498017 -4.15376,0.520647 0.59336,0.316819 0.86053,0.542989 0.86053,2.421275 0,2.444032 3e-5,3.98302 -0.14832,5.250298 -0.089,0.882567 -0.2967,2.760565 -2.78879,2.760565 -1.72074,0 -1.83974,-1.063353 -1.8694,-1.402802 -0.0594,-0.384711 -0.0588,-0.633919 -0.0588,-2.399055 l 0.0294,-5.091763 c 0,-1.108867 0.0591,-1.402706 0.2372,-2.036345 -0.68236,0.203669 -1.75052,0.497827 -4.39096,0.497827 0.38569,0.135779 0.80143,0.271621 0.97943,1.154189 0.089,0.588377 0.0887,0.995682 0.1183,3.077636 l -0.0294,5.001085 c 0,1.516206 0.4749,2.21789 1.80995,2.670488 0.83071,0.27156 1.57211,0.271433 2.01713,0.271433 2.5811,0 3.61962,-1.5614 4.09431,-2.285558 l 0.0889,2.149842 c 0.59335,-0.04526 1.18681,-0.09068 1.89883,-0.09068 0.68236,0 1.18669,0.02279 1.83937,0.09068 -0.32634,-0.24893 -0.59317,-0.498048 -0.68218,-1.312725 -0.11867,-0.633638 -0.1189,-1.176912 -0.1189,-3.100456 v -3.009783 c 0.0594,-3.666051 0.0596,-4.073194 0.26723,-5.136801 z m 11.48123,0 c -3.56014,0.2263 -4.83579,2.602694 -5.22147,3.32685 l 0.20778,-3.30403 c -1.7504,0.54312 -3.14468,0.587903 -4.27206,0.587903 1.06804,0.384709 1.12716,1.109303 1.12716,5.069544 v 2.669888 l -0.14833,3.078237 c -0.0594,0.611009 -0.11863,0.814139 -0.29665,1.153588 0.50436,-0.04526 1.12721,-0.112894 2.07658,-0.112894 0.77136,0 1.21648,0.04501 1.7505,0.112894 -0.41535,-0.701528 -0.41555,-1.855177 -0.41555,-2.737745 0,-0.927828 0.0301,-3.485037 0.2378,-4.661794 0.50436,-2.806112 3.38196,-2.806204 3.6193,-2.806204 0.29668,0 0.50453,0.0226 0.86054,0.06785 0.0296,-0.837308 0.17771,-1.652047 0.4744,-2.444094 z m 6.4081,0.112895 c -2.46243,0 -5.75533,0.814957 -5.75533,4.118929 0,2.376143 1.8099,3.055102 2.40326,3.304031 -0.62304,0.226299 -2.75938,1.017965 -2.75938,2.534171 0,1.470946 1.81,1.810867 2.75938,1.991906 -1.12738,0.40734 -3.23378,1.153873 -3.23378,2.692708 0,1.403055 1.60178,2.240581 3.41152,2.534772 0.91971,0.15841 1.80964,0.203574 2.58101,0.203574 3.94582,0 7.44699,-1.108895 7.44699,-4.231825 0,-2.851373 -2.99678,-2.987276 -6.20092,-3.168315 -1.95807,-0.113151 -2.19521,-0.113058 -2.66989,-0.203575 -0.32635,-0.04526 -1.42441,-0.226266 -1.42441,-0.927795 0,-0.724158 1.36473,-1.041292 1.39439,-1.041292 l 0.47501,0.06846 c 0.71203,0.11315 1.30514,0.112894 1.57215,0.112894 3.64913,0 5.28092,-1.787886 5.28092,-4.028251 0,-1.403056 -0.53383,-2.036787 -0.83051,-2.376236 1.42404,-0.02263 1.86923,0.0682 2.40326,0.181355 -0.0296,-0.656268 -1.5e-4,-0.860031 0.0889,-1.516299 -0.59335,0.11315 -1.7799,0.316471 -3.47098,0.316471 l -0.38613,-0.135716 c -0.89004,-0.27156 -1.98774,-0.429968 -3.08544,-0.429968 z m -73.220074,0.02282 c -2.93715,0 -4.657762,0.679022 -5.51813,1.018472 0.356016,0.49786 0.652378,0.927541 0.919388,1.900629 1.157045,-0.769418 2.670479,-1.176408 4.213215,-1.176408 2.462431,0 2.462105,1.244643 2.462105,3.009779 -0.563695,-0.02263 -1.038341,-0.06787 -1.839377,-0.06787 -3.76784,0 -6.259763,1.108736 -6.259763,4.141149 0,1.425686 0.563504,2.851559 2.224907,3.462566 0.741692,0.24893 1.483737,0.248614 1.721077,0.248614 2.72945,0 3.648912,-1.538675 4.212608,-2.489132 -0.02963,0.995717 -1.52e-4,1.606405 0.08887,2.398454 0.534021,-0.02263 1.068241,-0.06784 1.958281,-0.06785 0.50435,0 0.97893,0.04522 1.48328,0.06785 -0.32635,-0.384709 -0.50432,-0.610911 -0.59332,-1.49348 -0.0594,-0.859937 -0.0594,-1.719714 -0.0594,-2.919101 l 0.03,-4.616755 c 0,-1.719877 -0.59355,-3.416928 -5.043725,-3.416928 z m 73.101764,1.244866 c 1.89875,0 2.37324,1.199132 2.37324,2.692708 0,0.927828 -0.0593,2.715527 -2.43269,2.715527 -2.43277,0 -2.52156,-1.900912 -2.52156,-2.579811 0,-1.538836 0.56359,-2.828424 2.58101,-2.828424 z m -37.44087,0.814299 c 2.25474,0 2.69931,2.376613 2.69931,4.141748 0,2.104583 -0.50392,4.933226 -3.94537,4.933226 -0.47468,0 -1.06815,-0.06783 -1.45384,-0.135716 -0.0594,-0.814677 -0.0595,-2.21814 -0.0595,-3.847497 0,-1.946174 0.26733,-2.964106 0.475,-3.461965 0.62303,-1.606727 2.01733,-1.629796 2.28435,-1.629796 z m -35.097013,3.983211 h 1.572149 c -0.05938,1.425688 -0.08889,2.421307 -0.593305,3.213354 -0.623019,1.018349 -1.661325,1.312725 -2.432693,1.312725 -1.780088,0 -2.166052,-1.131652 -2.166052,-2.240519 0,-2.127215 2.492511,-2.28556 3.619901,-2.28556 z m 70.609033,5.996739 c 4.2425,0.20367 6.6459,0.33935 6.6459,1.923448 0,1.267276 -1.69084,2.127623 -4.36095,2.127623 -2.13607,0 -3.976,-0.588442 -3.976,-2.014125 0,-1.199389 1.54272,-2.059576 1.69105,-2.036946 z" />
  <path
     style="fill:#000000;fill-rule:nonzero;stroke:none;stroke-width:0.456378px;stroke-linecap:butt;stroke-linejoin:miter;stroke-opacity:1"
     d="m 210.11729,134.95829 c 0.46854,0.23678 1.04045,0.47118 1.68068,0.60036 0.48835,0.0985 0.98952,0.13075 1.50976,0.0798 0.46334,-0.0454 0.92074,-0.15449 1.38393,-0.32217 0.44108,-0.15967 0.87189,-0.3667 1.30321,-0.60561 0.879,-0.48688 1.73504,-1.08764 2.54464,-1.58743 1.16067,-0.71653 1.98283,-1.08023 2.76294,-1.29881 -0.78011,0.21858 -1.60227,0.58228 -2.76294,1.29881 -0.8096,0.49979 -1.66564,1.10055 -2.54464,1.58743 -0.43132,0.23891 -0.86213,0.44594 -1.30321,0.60561 -0.46319,0.16768 -0.92059,0.2768 -1.38393,0.32217 -0.52024,0.0509 -1.02141,0.0187 -1.50976,-0.0798 -0.64023,-0.12917 -1.21214,-0.36358 -1.68068,-0.60036 z"
     id="path44308" />
  <path
     id="path324-35-2-8"
     style="fill:#ffffff;fill-opacity:1;stroke:#1b344f;stroke-width:0.7;stroke-linecap:butt;stroke-linejoin:miter;stroke-miterlimit:4;stroke-dasharray:none;stroke-dashoffset:0;stroke-opacity:1"
     d="m 120.1651,107.63518 -1.31377,2.2379 h -2.65879 l 1.34427,2.24095 -1.34427,2.2318 h 2.65879 l 1.31377,2.24933 1.33207,-2.24933 h 2.64508 l -1.31835,-2.2318 1.31835,-2.24095 h -2.64508 z" />
  <path
     id="path324-35-2-8-9-2-3"
     style="fill:#f9f9f9;fill-opacity:1;stroke:#1b344f;stroke-width:0.7;stroke-linecap:butt;stroke-linejoin:miter;stroke-miterlimit:4;stroke-dasharray:none;stroke-dashoffset:0;stroke-opacity:1"
     d="m 174.51613,84.44847 -1.43562,2.66425 h -2.90534 l 1.46894,2.66789 -1.46894,2.65699 h 2.90534 l 1.43562,2.67786 1.45558,-2.67786 h 2.89038 l -1.44062,-2.65699 1.44062,-2.66789 h -2.89038 z" />
  <path
     id="path324-35-2-8-9-2-3-9"
     style="fill:#f9f9f9;fill-opacity:1;stroke:#1b344f;stroke-width:0.7;stroke-linecap:butt;stroke-linejoin:miter;stroke-miterlimit:4;stroke-dasharray:none;stroke-dashoffset:0;stroke-opacity:1"
     d="m 64.81426,110.67441 -1.43562,2.66425 H 60.4733 l 1.46894,2.66789 -1.46894,2.65699 h 2.90534 l 1.43562,2.67787 1.45558,-2.67787 h 2.89038 l -1.44062,-2.65699 1.44062,-2.66789 h -2.89038 z" />
  <path
     id="path324-35-2-8-9-2-2-2-3-7-7-7"
     style="fill:#ffffff;fill-opacity:1;stroke:#1b344f;stroke-width:0.7;stroke-linecap:butt;stroke-linejoin:miter;stroke-miterlimit:4;stroke-dasharray:none;stroke-dashoffset:0;stroke-opacity:1"
     d="m 243.17154,244.313 -1.80315,-3.34638 h -3.6492 l 1.84504,-3.35093 -1.84504,-3.33727 h 3.6492 l 1.80315,-3.36348 1.82822,3.36348 h 3.63039 l -1.80943,3.33727 1.80943,3.35093 h -3.63039 z" />
  <path
     id="path324-35-2-8-9-2-9"
     style="fill:#f9f9f9;fill-opacity:1;stroke:#1b344f;stroke-width:0.7;stroke-linecap:butt;stroke-linejoin:miter;stroke-miterlimit:4;stroke-dasharray:none;stroke-dashoffset:0;stroke-opacity:1"
     d="m 192.47652,99.144801 -1.13471,2.105829 h -2.29639 l 1.16105,2.1087 -1.16105,2.10009 h 2.29639 l 1.13471,2.11659 1.1505,-2.11659 h 2.28456 l -1.13865,-2.10009 1.13865,-2.1087 h -2.28456 z" />
  <path
     id="path13439"
     style="fill:#ffffff;fill-opacity:1;fill-rule:evenodd;stroke-width:0.7;stroke:#1b344f;stroke-opacity:1;stroke-dasharray:none"
     d="m 227.1575,89.099837 a 8.9886507,9.1063944 0 0 0 -8.98853,9.106206 8.9886507,9.1063944 0 0 0 8.98853,9.106167 8.9886507,9.1063944 0 0 0 3.34621,-0.65662 8.9886507,9.1063944 0 0 1 -6.05845,-8.602688 8.9886507,9.1063944 0 0 1 5.64981,-8.452727 8.9886507,9.1063944 0 0 0 -2.93757,-0.500338 z" />
  <path
     id="path324-35-2-8-9-2-2-2"
     style="fill:#ffffff;fill-opacity:1;stroke:#1b344f;stroke-width:0.7;stroke-linecap:butt;stroke-linejoin:miter;stroke-miterlimit:4;stroke-dasharray:none;stroke-dashoffset:0;stroke-opacity:1"
     d="m 164.24256,120.78414 -1.0493,1.94731 h -2.12353 l 1.07366,1.94997 -1.07366,1.942 h 2.12353 l 1.0493,1.95725 1.06389,-1.95725 h 2.11258 l -1.05294,-1.942 1.05294,-1.94997 h -2.11258 z" />
  <path
     id="path324-35-2-8-9-2-2-2-3"
     style="fill:#ffffff;fill-opacity:1;stroke:#1b344f;stroke-width:0.7;stroke-linecap:butt;stroke-linejoin:miter;stroke-miterlimit:4;stroke-dasharray:none;stroke-dashoffset:0;stroke-opacity:1"
     d="m 205.75485,127.49318 -1.17112,2.17341 h -2.37009 l 1.19833,2.17637 -1.19833,2.1675 h 2.37009 l 1.17112,2.18453 1.18742,-2.18453 h 2.35789 l -1.1752,-2.1675 1.1752,-2.17637 h -2.35789 z" />
  <path
     id="path324-35-2-8-9-2-2-2-3-7"
     style="fill:#ffffff;fill-opacity:1;stroke:#1b344f;stroke-width:0.7;stroke-linecap:butt;stroke-linejoin:miter;stroke-miterlimit:4;stroke-dasharray:none;stroke-dashoffset:0;stroke-opacity:1"
     d="m 142.34693,99.672526 -1.12818,-2.09372 h -2.2832 l 1.15439,-2.096572 -1.15439,-2.088018 h 2.2832 l 1.12818,-2.104418 1.14387,2.104418 h 2.27143 l -1.13211,2.088018 1.13211,2.096572 h -2.27143 z" />
  <path
     id="path324-35-2-8-9-2-2-2-3-7-3"
     style="fill:#ffffff;fill-opacity:1;stroke:#1b344f;stroke-width:0.7;stroke-linecap:butt;stroke-linejoin:miter;stroke-miterlimit:4;stroke-dasharray:none;stroke-dashoffset:0;stroke-opacity:1"
     d="m 122.2508,79.483895 -1.12818,-2.09372 h -2.2832 l 1.15439,-2.096572 -1.15439,-2.088018 h 2.2832 l 1.12818,-2.104418 1.14387,2.104418 h 2.27143 l -1.13211,2.088018 1.13211,2.096572 h -2.27143 z" />
  <path
     id="path324-35-2-8-9-2-2-2-3-7-6-2"
     style="fill:#ffffff;fill-opacity:1;stroke:#1b344f;stroke-width:0.7;stroke-linecap:butt;stroke-linejoin:miter;stroke-miterlimit:4;stroke-dasharray:none;stroke-dashoffset:0;stroke-opacity:1"
     d="m 44.919114,88.383535 -1.12818,-2.09372 h -2.2832 l 1.15439,-2.09657 -1.15439,-2.08802 h 2.2832 l 1.12818,-2.10442 1.14387,2.10442 h 2.27143 l -1.13211,2.08802 1.13211,2.09657 h -2.27143 z" />
  <text
     xml:space="preserve"
     style="font-style:normal;font-weight:normal;font-size:10.5833px;line-height:1.25;font-family:sans-serif;letter-spacing:0px;word-spacing:0px;fill:#000000;fill-opacity:1;stroke:none;stroke-width:0.264583"
     x="100.0932"
     y="121.59669"
     id="text4406"><tspan
       id="tspan4404"
       style="stroke-width:0.264583"
       x="100.0932"
       y="121.59669" /></text>
  <path
     id="path10408"
     style="font-size:21.7524px;line-height:1.25;font-family:'Poppl-Laudatio Condensed';-inkscape-font-specification:'Poppl-Laudatio Condensed, ';letter-spacing:0px;word-spacing:0px;fill:#f57900;fill-opacity:1;stroke-width:0.631942"
     d="m 64.505626,17.631865 c -1.802886,0.691103 -2.912438,0.806223 -4.105116,0.89837 1.081729,0.368589 1.081527,1.888756 1.081527,6.841655 v 5.667052 c 0,1.704719 1.53e-4,2.672543 -0.332686,3.40972 1.137207,0.368587 2.551895,0.575893 4.243836,0.575893 1.081729,0 4.215923,1.28e-4 5.907864,-2.879466 0.80436,-1.336131 1.081523,-3.133278 1.081523,-4.492446 0,-0.829324 -0.110814,-2.648815 -0.915183,-3.800652 -0.776628,-1.082728 -2.024914,-1.635802 -3.356273,-1.635802 -2.662726,0 -3.439252,1.843081 -3.855306,2.787588 0,-1.174875 0.02792,-5.275567 0.249814,-7.371912 z m 11.853557,0.183157 -1.757107,1.757105 1.757107,1.757105 1.758307,-1.757105 z m 92.854017,0 -1.7571,1.757105 1.7571,1.757105 1.75831,-1.757105 z m -55.44737,0.715213 c 0.38831,0.391626 0.63812,0.621929 0.6936,1.981096 l 0.0552,7.694385 c 0.0278,1.889014 0.0279,3.29433 -0.0277,4.768683 -0.0278,1.290058 -0.13853,1.497376 -0.33269,1.912038 0.61022,-0.06911 1.10914,-0.115301 1.99672,-0.115301 0.94305,0 1.38674,0.04619 1.94148,0.115301 -0.44379,-0.760214 -0.4714,-1.727947 -0.4714,-4.883982 v -1.566142 l 0.88756,0.02282 1.19263,-0.04624 1.94147,2.948526 c 0.69342,1.013617 1.77542,2.672658 1.99732,3.525018 0.55473,-0.04608 1.16517,-0.138118 2.30236,-0.138118 0.80438,0 1.30341,0.04597 1.96911,0.138118 -2.41311,-2.62619 -4.65992,-6.105095 -5.27013,-7.095674 0.88757,-0.368589 3.57786,-1.427754 3.57786,-4.768081 0,-4.469129 -4.7151,-4.469409 -6.07421,-4.492446 -0.58248,0 -1.35904,0.02299 -2.08019,0.06906 -0.74891,0.02303 -1.46973,0.06906 -1.99672,0.06906 -0.52701,0 -0.94304,-0.02321 -1.33136,-0.04624 -0.36058,-0.02303 -0.66592,-0.06884 -0.97103,-0.09187 z m -81.462793,0.02282 c 0.471524,0.437698 0.720992,0.714305 0.776465,2.211692 0.05548,1.543462 0.05597,2.51098 0.02823,3.824074 v 5.298335 c -0.02774,3.893211 -0.02773,4.100681 -0.887561,4.953041 0.859839,-0.02303 2.301829,-0.02282 3.466771,-0.02282 0.887574,0 1.719936,0.02282 2.441091,0.02282 6.213022,0 8.819756,-2.787496 8.819756,-8.592757 0,-3.271217 -0.942581,-5.75926 -3.355676,-6.934134 -1.275887,-0.621992 -2.912508,-0.760251 -4.382553,-0.760251 -0.665681,0 -1.303407,0.02342 -1.969087,0.02342 -0.665681,0 -1.331631,0.02282 -1.997311,0.02282 -0.887575,0 -2.080282,-1.66e-4 -2.940119,-0.04624 z m 87.038003,1.635799 c 2.35763,0 3.63313,0.944443 3.63313,3.063825 0,1.612571 -0.80387,2.902628 -2.77319,3.248178 -0.66569,0.115184 -1.44239,0.09209 -2.63508,0.06906 l 0.11051,-6.289182 c 0.61022,-0.04608 1.1099,-0.09187 1.66464,-0.09187 z m -81.019045,0.09187 c 4.437871,0 5.436456,2.350181 5.436456,6.450721 0,4.745572 -1.886118,6.358245 -5.741519,6.358245 -1.386834,0 -1.69191,-0.253941 -1.77512,-0.89897 -0.08322,-0.460735 -0.08347,-3.201826 -0.08347,-4.169371 v -3.17912 c 0,-3.04085 0.02799,-3.340224 0.08347,-4.469025 0.637944,-0.04608 1.386765,-0.09248 2.080183,-0.09248 z m 58.469086,1.773919 c -0.693417,0.299477 -1.414664,0.599045 -3.661342,0.691193 0.30511,0.230367 0.582537,0.437711 0.721217,1.336143 0.24964,1.474352 0.13835,7.694449 0.0829,8.961471 -0.0554,1.290058 -0.16614,1.474389 -0.360297,1.842978 0.554717,-0.06911 0.998344,-0.09248 1.664018,-0.09248 0.832107,0 1.414694,0.0464 1.886221,0.09248 -0.27737,-0.806287 -0.27732,-1.083148 -0.305057,-4.031852 0,-3.409438 -3e-4,-4.284272 0.221587,-5.090557 0.19416,-0.78325 0.721387,-1.751099 2.302368,-1.751099 1.608734,0 1.747284,1.059817 1.802754,1.451442 0.0832,0.552882 0.0834,2.119214 0.0834,3.20194 v 2.487931 c 0,0.621992 -0.0556,2.395858 -0.13873,2.925704 -0.0554,0.391625 -0.11121,0.507013 -0.22219,0.806491 0.527,-0.06911 0.88786,-0.1153 1.55352,-0.1153 1.13723,0 1.49762,0.06922 2.10782,0.1153 -0.38833,-0.668066 -0.38842,-1.497504 -0.41615,-2.280753 v -6.934136 c -0.0278,-1.382203 -0.055,-3.478778 -3.52201,-3.478778 -2.773675,0 -3.467222,1.590035 -3.800069,2.304173 z m 60.659849,0 c -0.69342,0.299477 -1.41405,0.599045 -3.66073,0.691193 0.3051,0.230367 0.58193,0.437711 0.72061,1.336143 0.24963,1.474352 0.13895,7.694449 0.0834,8.961471 -0.0554,1.290058 -0.16615,1.474389 -0.36031,1.842978 0.55474,-0.06911 0.99835,-0.09248 1.66404,-0.09248 0.83209,0 1.41467,0.0464 1.8862,0.09248 -0.27735,-0.806287 -0.2773,-1.083148 -0.30505,-4.031852 0,-3.409438 -3e-4,-4.284272 0.22158,-5.090557 0.19416,-0.78325 0.7214,-1.751099 2.30238,-1.751099 1.60873,0 1.74727,1.059817 1.80275,1.451442 0.0833,0.552882 0.0834,2.119214 0.0834,3.20194 v 2.487931 c 0,0.621992 -0.0554,2.395858 -0.13873,2.925704 -0.0554,0.391625 -0.11133,0.507013 -0.22219,0.806491 0.52701,-0.06911 0.88786,-0.1153 1.55353,-0.1153 1.13721,0 1.49761,0.06922 2.10781,0.1153 -0.38831,-0.668066 -0.38842,-1.497504 -0.41615,-2.280753 v -6.934136 c -0.0278,-1.382203 -0.0555,-3.478778 -3.52263,-3.478778 -2.77366,0 -3.4672,1.590035 -3.80005,2.304173 z m 32.92381,0 c -0.69342,0.299477 -1.41467,0.599045 -3.66134,0.691193 0.3051,0.230367 0.58253,0.437711 0.72122,1.336143 0.24964,1.474352 0.13836,7.694449 0.0829,8.961471 -0.0554,1.290058 -0.16615,1.474389 -0.36031,1.842978 0.55474,-0.06911 0.99834,-0.09248 1.66402,-0.09248 0.83211,0 1.4147,0.0464 1.88622,0.09248 -0.27737,-0.806287 -0.27733,-1.083148 -0.30506,-4.031852 0,-3.409438 3e-4,-4.284272 0.22218,-5.090557 0.19416,-0.78325 0.72079,-1.751099 2.30178,-1.751099 1.60873,0 1.74727,1.059817 1.80275,1.451442 0.0832,0.552882 0.0834,2.119214 0.0834,3.20194 v 2.487931 c 0,0.621992 -0.0554,2.395858 -0.13871,2.925704 -0.0554,0.391625 -0.11063,0.507013 -0.2216,0.806491 0.527,-0.06911 0.88724,-0.1153 1.55293,-0.1153 1.13719,0 1.49761,0.06922 2.10781,0.1153 -0.38831,-0.668066 -0.38782,-1.497504 -0.41555,-2.280753 v -6.934136 c -0.0277,-1.382203 -0.0556,-3.478778 -3.52262,-3.478778 -2.77367,0 -3.46722,1.590035 -3.80006,2.304173 z m -112.167173,0.02342 c -1.053994,0.41466 -1.691989,0.552536 -3.966397,0.736832 0.38831,0.230366 0.63778,0.368869 0.776464,1.244264 0.194157,1.151838 0.16619,6.634363 0.05524,8.684634 -0.08321,1.497389 -0.194037,1.704936 -0.471403,2.142635 0.637944,-0.06911 1.248456,-0.115301 2.136032,-0.115301 0.804364,0 1.192761,0.04619 1.747504,0.115301 -0.610213,-0.944507 -0.582731,-1.796864 -0.527259,-9.744543 0,-1.543461 0.02792,-2.050205 0.249814,-3.063822 z m 73.530073,0 c -1.10948,0.368587 -1.85876,0.506616 -3.88353,0.529653 0.55472,0.322516 0.80469,0.553062 0.80469,2.465111 0,2.487968 -4e-5,4.054516 -0.13872,5.344574 -0.0832,0.898433 -0.27755,2.810407 -2.60744,2.810407 -1.60872,0 -1.71975,-1.083073 -1.74749,-1.428624 -0.0554,-0.391624 -0.0552,-0.644824 -0.0552,-2.44169 l 0.0277,-5.183036 c 0,-1.1288 0.0558,-1.428546 0.22219,-2.073575 -0.63794,0.20733 -1.63655,0.506833 -4.10512,0.506833 0.36058,0.138222 0.74877,0.276174 0.91519,1.174606 0.0832,0.598956 0.0833,1.0141 0.11109,3.133481 l -0.0282,5.091159 c 0,1.543462 0.4441,2.257192 1.69225,2.717927 0.77663,0.276441 1.47016,0.276838 1.88621,0.276838 2.41309,0 3.38388,-1.589818 3.82768,-2.326993 l 0.0829,2.188273 c 0.55473,-0.04608 1.10943,-0.09187 1.77511,-0.09187 0.63794,0 1.10967,0.02276 1.71987,0.09187 -0.3051,-0.253405 -0.55453,-0.506821 -0.63774,-1.336144 -0.11098,-0.645028 -0.11109,-1.197578 -0.11109,-3.155702 v -3.063825 c 0.0554,-3.731953 0.0555,-4.146549 0.24982,-5.229276 z m 19.47108,0 c -1.05401,0.41466 -1.69199,0.552536 -3.96641,0.736832 0.38833,0.230366 0.63779,0.368869 0.77647,1.244264 0.19416,1.151838 0.16624,6.634363 0.0552,8.684634 -0.0831,1.497389 -0.19403,1.704936 -0.4714,2.142635 0.63795,-0.06911 1.24844,-0.115301 2.13603,-0.115301 0.80436,0 1.19275,0.04619 1.7475,0.115301 -0.61021,-0.944507 -0.58272,-1.796864 -0.52725,-9.744543 0,-1.543461 0.0279,-2.050205 0.24981,-3.063822 z M 54.520272,22.192761 c -5.658287,0 -5.658649,5.206841 -5.658649,6.312606 0,4.67646 2.524084,6.519181 6.767799,6.519181 1.886096,0 2.801768,-0.230111 3.301028,-0.345295 -0.02774,-0.829324 0.111013,-1.359437 0.277438,-2.073577 -0.58247,0.299479 -1.331764,0.691193 -2.995967,0.691193 -4.326925,0 -4.381955,-3.271167 -4.381955,-4.399967 h 7.377922 l 0.05524,-1.359564 c 0,-2.695299 -0.63783,-5.344577 -4.742863,-5.344577 z m 79.715368,0 c -5.65829,0 -5.65866,5.206841 -5.65866,6.312606 0,4.67646 2.5241,6.519181 6.76782,6.519181 1.88609,0 2.80176,-0.230111 3.30102,-0.345295 -0.0278,-0.829324 0.11098,-1.359437 0.27743,-2.073577 -0.58246,0.299479 -1.33175,0.691193 -2.99595,0.691193 -4.32694,0 -4.38196,-3.271167 -4.38196,-4.399967 h 7.37791 l 0.0552,-1.359564 c 0,-2.695299 -0.63782,-5.344577 -4.74286,-5.344577 z m -48.095873,0.02342 c -2.74594,0 -4.35466,0.690939 -5.15902,1.03649 0.33283,0.506808 0.6103,0.944876 0.85993,1.935456 1.08173,-0.783249 2.49647,-1.198025 3.93878,-1.198025 2.30214,0 2.30236,1.266956 2.30236,3.063821 -0.52699,-0.02303 -0.97097,-0.06906 -1.71987,-0.06906 -3.52256,0 -5.85261,1.128685 -5.85261,4.21561 0,1.451316 0.52693,2.902425 2.08018,3.524418 0.69342,0.253404 1.38689,0.253416 1.60878,0.253416 2.55178,0 3.41178,-1.566627 3.93878,-2.534169 -0.0278,1.013616 2.5e-4,1.636005 0.0834,2.442291 0.49925,-0.02303 0.99826,-0.06906 1.83037,-0.06906 0.471517,0 0.915047,0.04602 1.386564,0.06906 -0.3051,-0.391628 -0.471057,-0.622073 -0.554267,-1.520506 -0.0554,-0.875397 -0.0559,-1.750998 -0.0559,-2.971945 l 0.0277,-4.699621 c 0,-1.750794 -0.554737,-3.478181 -4.715237,-3.478181 z m 93.306803,0 c -5.10355,0 -5.74152,3.75499 -5.74152,6.496363 0,2.626189 0.52676,6.334823 5.65805,6.334823 4.93713,0 5.63091,-3.68561 5.65865,-6.588241 0,-2.994777 -0.6658,-6.242945 -5.57518,-6.242945 z m 0,1.428025 c 1.71967,0 2.60696,1.26748 2.57922,4.792101 -0.0277,3.801063 -0.88765,5.090558 -2.63507,5.090558 -2.46854,0 -2.66268,-2.625766 -2.66268,-4.629964 0,-3.086923 0.49959,-5.252695 2.71853,-5.252695 z m -125.203735,0.04624 c 2.163463,0 2.329621,1.981288 2.274147,3.616895 h -4.742863 c 0.02774,-1.91205 0.49941,-3.616895 2.468716,-3.616895 z m 79.715375,0 c 2.16345,0 2.32962,1.981288 2.27414,3.616895 h -4.74286 c 0.0278,-1.91205 0.49941,-3.616895 2.46872,-3.616895 z M 66.918495,24.31258 c 2.107991,0 2.52396,2.41874 2.52396,4.215606 0,2.142419 -0.471501,5.0221 -3.688958,5.0221 -0.443789,0 -0.998386,-0.069 -1.358964,-0.138119 -0.05547,-0.829321 -0.05524,-2.257906 -0.05524,-3.916551 0,-1.981161 0.249623,-3.01761 0.44378,-3.524418 0.582472,-1.635608 1.885801,-1.658618 2.13543,-1.658618 z m 19.748522,4.054069 h 1.47006 c -0.0554,1.451314 -0.0833,2.465314 -0.55488,3.2716 -0.58247,1.036654 -1.55299,1.336144 -2.27415,1.336144 -1.6642,0 -2.02493,-1.151953 -2.02493,-2.280753 0,-2.165454 2.3299,-2.326991 3.3839,-2.326991 z" />
  <g
     aria-label="2023"
     id="text290"
     style="font-size:39.0299px;font-family:'Poppl-Laudatio Condensed';-inkscape-font-specification:'Poppl-Laudatio Condensed, ';letter-spacing:0px;word-spacing:0px;fill:#f57900;stroke-width:0.203281;fill-opacity:1">
    <path
       d="m 176.67214,69.185294 c 4.25426,-3.82493 6.98635,-6.986352 8.46949,-9.054937 1.13186,-1.561196 3.04433,-4.332319 3.04433,-7.76695 0,-4.176199 -2.81015,-6.986352 -8.31337,-6.986352 -2.10761,0 -4.02008,0.312239 -6.0106,1.014778 0.039,0.390299 0.039,0.858657 0.039,1.561196 0.039,0.741568 -0.11709,1.483136 -0.15612,2.380823 1.4441,-0.975747 2.96627,-1.366046 4.76164,-1.366046 3.35658,0 5.38613,1.912465 5.38613,4.956797 0,3.161422 -1.87343,6.205754 -6.51799,11.162551 -2.3418,2.536944 -3.47366,3.434632 -4.64456,4.410379 0.0781,0.429329 0.15612,1.014778 0.15612,1.834405 0,0.819628 -0.0781,1.483137 -0.15612,1.912465 1.1709,-0.156119 4.60553,-0.195149 8.46949,-0.195149 2.41985,0 4.95679,0.03903 7.41568,0.195149 -0.0781,-0.585448 -0.11709,-1.131867 -0.11709,-2.107614 0,-1.444106 0.0781,-2.146645 0.19515,-3.044332 -1.40508,1.053807 -2.10762,1.092837 -7.45471,1.092837 z"
       id="path320"
       style="fill:#f57900;fill-opacity:1" />
    <path
       d="m 209.30114,59.271699 c 0.078,-9.328146 -1.87344,-13.855614 -8.66464,-13.855614 -7.37665,0 -8.70367,6.127694 -8.70367,14.519123 0,5.151946 0.31224,13.582405 8.54755,13.582405 7.84501,0 8.78173,-8.04016 8.82076,-14.245914 z m -4.25426,-0.195149 c -0.039,8.118219 -1.05381,11.279641 -4.44941,11.279641 -3.90299,0 -4.33232,-4.293289 -4.33232,-9.640385 0,-8.703668 0.70254,-12.372478 4.48844,-12.372478 3.47366,0 4.33232,2.966272 4.29329,10.733222 z"
       id="path323"
       style="fill:#f57900;fill-opacity:1" />
    <path
       d="m 215.70204,69.185294 c 4.25426,-3.82493 6.98635,-6.986352 8.46949,-9.054937 1.13186,-1.561196 3.04433,-4.332319 3.04433,-7.76695 0,-4.176199 -2.81015,-6.986352 -8.31337,-6.986352 -2.10761,0 -4.02008,0.312239 -6.0106,1.014778 0.039,0.390299 0.039,0.858657 0.039,1.561196 0.039,0.741568 -0.11709,1.483136 -0.15612,2.380823 1.4441,-0.975747 2.96627,-1.366046 4.76164,-1.366046 3.35658,0 5.38613,1.912465 5.38613,4.956797 0,3.161422 -1.87344,6.205754 -6.51799,11.162551 -2.3418,2.536944 -3.47366,3.434632 -4.64456,4.410379 0.0781,0.429329 0.15612,1.014778 0.15612,1.834405 0,0.819628 -0.0781,1.483137 -0.15612,1.912465 1.1709,-0.156119 4.60553,-0.195149 8.46949,-0.195149 2.41985,0 4.95679,0.03903 7.41568,0.195149 -0.0781,-0.585448 -0.11709,-1.131867 -0.11709,-2.107614 0,-1.444106 0.0781,-2.146645 0.19515,-3.044332 -1.40508,1.053807 -2.10762,1.092837 -7.45471,1.092837 z"
       id="path325"
       style="fill:#f57900;fill-opacity:1" />
    <path
       d="m 241.18856,58.608191 c 4.52747,-1.248957 4.9568,-4.956797 4.9568,-6.478963 0,-6.752173 -6.63508,-6.752173 -8.11822,-6.752173 -2.34179,0 -3.7859,0.312239 -5.3471,0.702538 0.039,0.429329 0.0781,0.936718 0.0781,1.561196 0,0.702539 -0.11709,1.522166 -0.23417,2.107615 0.89768,-0.546419 1.91246,-1.170897 4.37134,-1.170897 3.35658,0 4.99583,1.873435 4.99583,4.254259 0,4.878737 -5.81545,4.878737 -7.25956,4.878737 l -1.05381,-0.03903 c 0,0.585448 0.039,1.131867 0.039,1.717315 0,0.507389 -0.039,0.975748 -0.039,1.483136 0.66351,-0.156119 1.13187,-0.234179 2.41986,-0.234179 1.4441,0 6.86926,0 6.86926,4.878737 0,2.146645 -1.40508,4.839708 -5.7374,4.839708 -3.04433,0 -4.13717,-0.975748 -4.64455,-1.444106 -0.0781,1.795375 -0.23418,2.615003 -0.74157,3.82493 2.02955,0.663508 4.41038,0.780598 5.65933,0.780598 8.70367,0 9.75748,-5.815455 9.75748,-8.118219 0,-5.034857 -4.13717,-6.244784 -6.04964,-6.517994 l -0.85865,-0.07806 z"
       id="path327"
       style="fill:#f57900;fill-opacity:1" />
  </g>
  <text
     xml:space="preserve"
     style="font-size:28.2223px;line-height:1.25;font-family:'Poppl-Laudatio Condensed';-inkscape-font-specification:'Poppl-Laudatio Condensed, ';letter-spacing:0px;word-spacing:0px;stroke-width:0.264583"
     x="329.07571"
     y="100.27358"
     id="text1577"><tspan
       id="tspan1575"
       style="stroke-width:0.264583"
       x="329.07571"
       y="100.27358" /><tspan
       style="stroke-width:0.264583"
       id="tspan1579"
       x="329.07571"
       y="135.55147" /></text>
</svg>
