<?xml version="1.0" encoding="UTF-8" standalone="no"?>
<svg
   version="1.2"
   viewBox="0 0 910 277"
   width="910"
   height="277"
   id="svg20"
   sodipodi:docname="FOSDEM_logo.svg"
   inkscape:version="1.3.2 (1:1.3.2+202311252150+091e20ef0f)"
   xmlns:inkscape="http://www.inkscape.org/namespaces/inkscape"
   xmlns:sodipodi="http://sodipodi.sourceforge.net/DTD/sodipodi-0.dtd"
   xmlns="http://www.w3.org/2000/svg"
   xmlns:svg="http://www.w3.org/2000/svg">
  <defs
     id="defs1" />
  <sodipodi:namedview
     id="namedview1"
     pagecolor="#ffffff"
     bordercolor="#666666"
     borderopacity="1.0"
     inkscape:showpageshadow="2"
     inkscape:pageopacity="0.0"
     inkscape:pagecheckerboard="0"
     inkscape:deskcolor="#d1d1d1"
     inkscape:zoom="3.089011"
     inkscape:cx="455"
     inkscape:cy="138.39381"
     inkscape:window-width="3840"
     inkscape:window-height="1461"
     inkscape:window-x="0"
     inkscape:window-y="0"
     inkscape:window-maximized="1"
     inkscape:current-layer="svg20" />
  <path
     d="m 152.5,164.9 78.1,78.1 -13.1,13 -78.1,-78.1 z"
     id="path2" style="fill:#ffffff;fill-opacity:1" />
  <path
     d="m 178.5,138.9 78.1,78.1 -13,13 -78.1,-78.1 z"
     id="path3"
        style="fill:#ffffff;fill-opacity:1" />

  <path
     d="m 35.3,47.8 78.1,78.1 -13,13 -78.1,-78.1 z"
     id="path4"
        style="fill:#ffffff;fill-opacity:1" />

  <path
     d="m 61.3,21.7 78.1,78.1 -13,13.1 -78.1,-78.1 z"
     id="path5"
        style="fill:#ffffff;fill-opacity:1" />

  <path
     d="m 230.6,34.8 -78.1,78 -13.1,-13 78.1,-78.1 z"
     id="path6"
        style="fill:#ffffff;fill-opacity:1" />

  <path
     d="m 256.6,60.8 -78.1,78.1 -13,-13 78.1,-78.1 z"
     id="path7"
        style="fill:#ffffff;fill-opacity:1" />

  <path
     d="M 113.4,151.9 35.3,230 22.3,217 100.4,138.9 Z"
     id="path8"
        style="fill:#ffffff;fill-opacity:1" />

  <path
     d="M 139.4,177.9 61.3,256 48.3,243 126.4,164.9 Z"
     id="path9"
        style="fill:#ffffff;fill-opacity:1" />

  <path
     d="m 111.8,0.8 h 18.4 V 56 h -18.4 z"
     id="path10"
        style="fill:#ffffff;fill-opacity:1" />

  <path
     d="m 148.6,0.8 h 18.5 V 56 h -18.5 z"
     id="path11"
        style="fill:#ffffff;fill-opacity:1" />

  <path
     d="m 111.8,221.7 h 18.4 v 55.2 h -18.4 z"
     id="path12"
        style="fill:#ffffff;fill-opacity:1" />

  <path
     d="m 148.6,221.7 h 18.5 v 55.2 h -18.5 z"
     id="path13"
style="fill:#ffffff;fill-opacity:1"
/>
  <path
     d="m 277.5,129.7 h -55.2 v -18.4 h 55.2 z"
     id="path14"
     style="fill:#ffffff;fill-opacity:1"
 />
  <path
     d="m 277.5,166.5 h -55.2 v -18.4 h 55.2 z"
     id="path15"
     style="fill:#ffffff;fill-opacity:1"
 />
  <path
     d="m 1.4,111.3 h 55.2 v 18.4 H 1.4 Z"
     id="path16"
     style="fill:#ffffff;fill-opacity:1"
 />
  <path
     d="m 1.4,148.1 h 55.2 v 18.4 H 1.4 Z"
     id="path17"
style="fill:#ffffff;fill-opacity:1" />
  <path
     fill-rule="evenodd"
     d="m 869.3,219.1 c 2.4,4.7 7.2,8.4 13.7,8.4 5.3,0 8.8,-1.9 8.8,-5.4 0,-3 -1.5,-4.1 -11.1,-6.4 l -1.6,-0.4 c -14.4,-3.3 -22.2,-8.7 -22.2,-20 0,-10.1 8.6,-19.5 24.9,-19.5 14,0 23.4,5.5 26.7,16.3 l -7.2,2.9 -7.2,2.6 c -1.5,-4.8 -6.1,-8.4 -12.5,-8.4 -5.8,0 -9,2.6 -9,5.3 0,3.3 2.4,4.7 11.6,6.7 l 1.1,0.3 c 16.4,3.6 22.5,9.5 22.5,20.1 0,10.6 -9.2,19.5 -24.5,19.5 -14.5,0 -23.5,-6.6 -28.4,-16 l 7.4,-3 z m 9,-24.4 c -0.3,0 -0.2,0 -0.2,-0.2 0,0.1 0,0.2 0.2,0.2 z m -32.1,19 h -44.4 c 1.7,7.9 7.5,12.6 15.5,12.6 6.8,0 11.4,-2.7 15.6,-8 l 12.2,8.8 c -7,8.7 -14.9,14 -28.8,14 -19.4,0 -31.1,-14.6 -31.1,-32.9 0,-17.6 11.7,-32.4 31.1,-32.4 18.6,0 30.3,13.4 30.3,31 0,2.2 0,4.5 -0.4,6.9 z m -16,-11.4 c -1.5,-7.5 -7,-11.3 -13.4,-11.3 -7.7,0 -13,4.1 -14.8,11.3 z M 715.1,177.2 h 16.5 v 2.4 c 3.9,-2.5 8.6,-3.7 13.6,-3.7 18.8,0 28.5,12.2 28.5,28.4 v 35.4 h -16.2 v -35.4 c 0,-7.3 -4.8,-13.1 -12.9,-13.1 -7.9,0 -11.6,4.8 -13,7.1 v 41.4 h -16.5 z m -73.1,0 h 16.6 v 2.4 c 3.8,-2.5 8.6,-3.6 13.6,-3.6 18.7,0 28.5,12.1 28.5,28.4 v 35.4 h -16.3 v -35.4 c 0,-7.4 -4.7,-13.2 -12.8,-13.2 -7.9,0 -11.7,4.8 -13,7.2 v 41.4 H 642 Z m -12.5,36.5 h -44.4 c 1.8,7.8 7.6,12.6 15.6,12.6 6.7,0 11.3,-2.8 15.6,-8 l 12.1,8.7 c -7,8.8 -14.9,14.1 -28.7,14.1 -19.4,0 -31.2,-14.7 -31.2,-32.9 0,-17.7 11.8,-32.4 31.2,-32.4 18.6,0 30.2,13.4 30.2,31 0,2.1 0,4.5 -0.4,6.9 z m -16,-11.4 c -1.5,-7.5 -7,-11.4 -13.3,-11.4 -7.8,0 -13.1,4.1 -14.8,11.4 z M 506,156.1 h 27 c 13.5,0 26.9,10.5 26.9,26.3 v 0.1 c 0,9.3 -4.9,18.9 -14.2,23.7 l 16,33.5 H 544.5 L 530.1,209 h -7.6 v 30.7 H 506 Z m 24.3,37.2 c 8,0 13.2,-3.5 13.3,-10.8 -0.1,-6.5 -5.4,-10.8 -13.3,-10.8 h -7.8 v 21.6 z"
     id="path18"
style="fill:#ffffff;fill-opacity:1" />
  <path
     fill-rule="evenodd"
     d="m 880.8,19 h 17.8 l -12.5,20.7 h -16.5 z m 27.6,59 c 0,-17.6 -11.6,-31 -30.2,-31 -19.4,0 -31.2,14.8 -31.2,32.4 0,18.3 11.8,32.9 31.2,32.9 13.8,0 21.7,-5.2 28.7,-14 l -12.1,-8.8 c -4.3,5.3 -8.9,8 -15.6,8 -8,0 -13.8,-4.7 -15.6,-12.6 H 908 c 0.4,-2.4 0.4,-4.7 0.4,-6.9 z m -44.5,-4.5 c 1.8,-7.2 7,-11.3 14.8,-11.3 6.3,0 11.8,3.8 13.3,11.3 z m -55.4,37.4 h 16 V 63.5 h 17.4 V 48.4 h -17.4 v -19 h -16 v 19 H 796 v 15.1 h 12.5 z M 769.2,36.5 h 16.5 v -17 h -16.5 z m 0.2,74.4 h 16.1 V 48.4 h -16.1 z m -58.9,-17.6 -7.3,3 c 4.8,9.4 13.9,16 28.4,16 15.2,0 24.5,-8.8 24.5,-19.5 0,-10.6 -6.2,-16.5 -22.5,-20.1 l -1.2,-0.3 c -9.2,-2 -11.6,-3.3 -11.6,-6.7 0,-2.6 3.3,-5.3 9,-5.3 6.4,0 11,3.7 12.5,8.4 l 7.3,-2.6 7.1,-2.9 c -3.3,-10.7 -12.6,-16.2 -26.6,-16.2 -16.4,0 -24.9,9.3 -24.9,19.5 0,11.2 7.7,16.6 22.1,20 l 1.6,0.3 c 9.7,2.3 11.2,3.4 11.2,6.4 0,3.5 -3.5,5.4 -8.9,5.4 -6.5,0 -11.3,-3.6 -13.6,-8.4 z m 15.9,-27.6 c 0,0.2 -0.1,0.2 0.3,0.2 -0.3,0 -0.3,-0.1 -0.3,-0.2 z M 660.5,111 h 16.8 V 69.4 l 19.2,-7.5 V 45.7 l -19.2,7.4 V 48.4 H 660.5 Z M 648.1,78 c 0,-17.6 -11.6,-31 -30.2,-31 -19.4,0 -31.2,14.7 -31.2,32.4 0,18.2 11.8,32.9 31.2,32.9 13.8,0 21.7,-5.3 28.7,-14 l -12.1,-8.8 c -4.3,5.3 -8.9,8 -15.6,8 -8.1,0 -13.8,-4.7 -15.6,-12.6 h 44.4 c 0.4,-2.4 0.4,-4.8 0.4,-6.9 z m -44.5,-4.5 c 1.7,-7.3 7,-11.4 14.8,-11.4 6.3,0 11.8,3.9 13.3,11.4 z M 558,110.9 581.6,48.4 H 564.4 L 549,89.3 532.7,48.4 h -17.2 l 25.4,62.5 z M 489.5,36.5 h 16.6 v -17 h -16.6 z m 0.3,74.4 h 16 V 48.4 h -16 z m -73.5,0 h 16.5 V 69.5 c 1.3,-2.3 5.1,-7.1 13,-7.1 8.1,0 12.9,5.8 12.9,13.1 v 35.4 h 16.2 V 75.5 c 0,-16.2 -9.7,-28.4 -28.5,-28.4 -5,0 -9.8,1.2 -13.6,3.7 V 48.4 H 416.3 Z M 332.7,27.4 v 50.4 c 0,20.5 13,34.4 33.9,34.4 20.9,0 34,-13.9 34,-34.4 V 27.4 h -16.5 v 50.4 c 0,11.3 -6.5,18.1 -17.5,18.1 -11,0 -17.4,-6.8 -17.4,-18.1 V 27.4 Z"
style="fill:#ffffff;fill-opacity:1"     id="path19"
 />
  <path
     fill-rule="evenodd"
     d="m 467,213.7 h -44.4 c 1.8,7.9 7.5,12.6 15.5,12.6 6.8,0 11.4,-2.7 15.7,-8 l 12.1,8.8 c -7,8.7 -14.9,14 -28.8,14 -19.3,0 -31.1,-14.6 -31.1,-32.9 0,-17.6 11.8,-32.4 31.1,-32.4 18.7,0 30.3,13.4 30.3,31 0,2.2 0,4.5 -0.4,6.9 z m -16,-11.4 c -1.5,-7.5 -7,-11.3 -13.4,-11.3 -7.7,0 -13,4.1 -14.7,11.3 z m -71.8,34.8 c -5.1,3.1 -10,4 -14.5,4 -19.3,0 -32,-13.6 -32,-32.6 0,-19.3 14,-32.7 32,-32.7 5,0 9.8,1.1 14.5,3.1 V 147.8 H 396 v 91.9 h -16.8 z m -12.9,-11.2 c 5.9,0 9.7,-2 12.9,-5 v -25.8 c -3.7,-2.4 -8.2,-4 -12.6,-4 -9.5,0 -17.4,6.3 -17.4,17.4 0,11.1 8,17.4 17.1,17.4 z"
     id="path20"
     style="fill:#ffffff;fill-opacity:1" />
</svg>
